<?xml version="1.0" encoding="UTF-8"?>
<!DOCTYPE svg PUBLIC "-//W3C//DTD SVG 1.1//EN" "http://www.w3.org/Graphics/SVG/1.1/DTD/svg11.dtd">
<!-- Creator: CorelDRAW 2021.5 -->
<svg xmlns="http://www.w3.org/2000/svg" xml:space="preserve" width="41.7318mm" height="41.7332mm" version="1.1" style="shape-rendering:geometricPrecision; text-rendering:geometricPrecision; image-rendering:optimizeQuality; fill-rule:evenodd; clip-rule:evenodd"
viewBox="0 0 3248.82 3248.93"
 xmlns:xlink="http://www.w3.org/1999/xlink"
 xmlns:xodm="http://www.corel.com/coreldraw/odm/2003">
 <defs>
  <style type="text/css">
   <![CDATA[
    .fil0 {fill:#8C9EFF;fill-rule:nonzero}
    .fil1 {fill:white;fill-rule:nonzero}
   ]]>
  </style>
 </defs>
 <g id="Layer_x0020_1">
  <metadata id="CorelCorpID_0Corel-Layer"/>
  <g id="_2506174693376">
   <g id="icon_2_">
    <path class="fil0" d="M1624.43 0c897.15,0 1624.39,727.27 1624.39,1624.43 0,897.07 -727.27,1624.5 -1624.39,1624.5 -897.16,-0.02 -1624.43,-727.44 -1624.43,-1624.5 0,-897.16 727.27,-1624.43 1624.43,-1624.43z"/>
    <path class="fil1" d="M2329.62 1098.69c0,0 -201.03,-157.26 -438.4,-175.37l-21.49 42.76c214.73,52.56 313.09,127.85 416.05,220.29 -177.39,-90.51 -352.47,-175.37 -657.62,-175.37 -305.16,0 -480.38,84.86 -657.61,175.37 102.68,-92.45 219.93,-176.01 415.91,-220.29l-21.34 -42.76c-249.21,23.58 -438.4,175.37 -438.4,175.37 0,0 -224.55,325.51 -263.05,964.51 226.26,261.02 569.92,263.06 569.92,263.06l71.82 -95.76c-122,-42.41 -259.74,-118.25 -378.71,-254.96 141.9,107.29 356.19,219.2 701.46,219.2 345.25,0 559.39,-111.76 701.45,-219.2 -119.12,136.7 -256.86,212.55 -378.71,254.96l71.82 95.76c0,0 343.51,-2.04 569.92,-263.06 -38.65,-639 -263.05,-964.51 -263.05,-964.51zm-986.42 789.11c-84.8,0 -153.43,-78.46 -153.43,-175.37 0,-96.82 68.66,-175.34 153.43,-175.34 84.8,0 153.45,78.52 153.45,175.34 0.01,96.94 -68.65,175.37 -153.45,175.37zm569.94 0c-84.8,0 -153.45,-78.46 -153.45,-175.37 0,-96.82 68.66,-175.34 153.45,-175.34 84.78,0 153.43,78.52 153.43,175.34 -0.01,96.94 -68.8,175.37 -153.43,175.37z"/>
   </g>
  </g>
 </g>
</svg>
